<svg id="Layer_1" enable-background="new 0 0 128 128" height="512" viewBox="0 0 128 128" width="512" xmlns="http://www.w3.org/2000/svg" xmlns:xlink="http://www.w3.org/1999/xlink"><linearGradient id="Artist_1_" gradientUnits="userSpaceOnUse" x1="70" x2="70" y1="8" y2="116"><stop offset="0" stop-color="#f44369"/><stop offset="1" stop-color="#3e3b92"/></linearGradient><path id="Artist" d="m104.9 56.2c-2-1.5-4.6-3.7-4.9-4.2 0-2.2-1.8-4-4-4s-4 1.8-4 4v35.3c-3.4-2-7.5-3.3-12-3.3-11 0-20 7.2-20 16s9 16 20 16 20-7.2 20-16v-37.5c5.6 4.4 12 9.5 12 17.5 0 2.2 1.8 4 4 4s4-1.8 4-4c0-11.9-9.1-19-15.1-23.8zm-24.9 51.8c-6.5 0-12-3.7-12-8s5.5-8 12-8 12 3.7 12 8-5.5 8-12 8zm-20.8 8h-27.2c-6.6 0-12-5.4-12-12v-19.4c0-6.9 4.4-13 10.9-15.2l10.4-3.4c1.6-.5 2.7-2.1 2.7-3.8v-4.4c-5.1-4.6-8-10.9-8-17.8v-7.2c0-12.2 8.7-23.1 20.8-24.6 14.7-1.9 27.2 9.5 27.2 23.8v8c0 6.9-2.9 13.2-8 17.8v4.4c0 1.7 1.1 3.2 2.7 3.8l5.3 1.8v8.4l-7.8-2.6c-4.9-1.6-8.2-6.2-8.2-11.4v-6.5c0-1.2.6-2.3 1.6-3 4.1-3.1 6.4-7.7 6.4-12.7v-7.3c0-8.4-6.1-15.8-14.4-16.6-9.5-1-17.6 6.5-17.6 15.9v8c0 5 2.3 9.6 6.4 12.7 1 .7 1.6 1.8 1.6 3v6.5c0 5.2-3.3 9.8-8.2 11.4l-10.3 3.4c-3.3 1.1-5.5 4.1-5.5 7.6v19.4c0 2.2 1.8 4 4 4h21.6c1.3 3 3.2 5.7 5.6 8z" fill="url(#Artist_1_)"/></svg>