<svg id="Layer_1" enable-background="new 0 0 128 128" height="512" viewBox="0 0 128 128" width="512" xmlns="http://www.w3.org/2000/svg" xmlns:xlink="http://www.w3.org/1999/xlink"><linearGradient id="Playlist_1_" gradientUnits="userSpaceOnUse" x1="64" x2="64" y1="16" y2="120"><stop offset="0" stop-color="#f44369"/><stop offset="1" stop-color="#3e3b92"/></linearGradient><path id="Playlist" d="m114.4 32.8c-1-.8-2.3-1-3.5-.7l-28 8c-1.7.5-2.9 2.1-2.9 3.9v47.3c-3.4-2-7.5-3.3-12-3.3-11 0-20 7.2-20 16s9 16 20 16 20-7.2 20-16v-37l25.1-7.2c1.7-.5 2.9-2.1 2.9-3.8v-20c0-1.3-.6-2.4-1.6-3.2zm-46.4 79.2c-6.5 0-12-3.7-12-8s5.5-8 12-8 12 3.7 12 8-5.5 8-12 8zm40-59-20 5.7v-11.7l20-5.7zm4-29h-96c-2.2 0-4-1.8-4-4s1.8-4 4-4h96c2.2 0 4 1.8 4 4s-1.8 4-4 4zm-48 28h-48c-2.2 0-4-1.8-4-4s1.8-4 4-4h48c2.2 0 4 1.8 4 4s-1.8 4-4 4zm0 28h-48c-2.2 0-4-1.8-4-4s1.8-4 4-4h48c2.2 0 4 1.8 4 4s-1.8 4-4 4zm-32 28h-16c-2.2 0-4-1.8-4-4s1.8-4 4-4h16c2.2 0 4 1.8 4 4s-1.8 4-4 4z" fill="url(#Playlist_1_)"/></svg>