<svg id="Layer_1" enable-background="new 0 0 128 128" height="512" viewBox="0 0 128 128" width="512" xmlns="http://www.w3.org/2000/svg" xmlns:xlink="http://www.w3.org/1999/xlink"><linearGradient id="Musical_Note_1_" gradientUnits="userSpaceOnUse" x1="56" x2="56" y1="8" y2="120"><stop offset="0" stop-color="#f44369"/><stop offset="1" stop-color="#3e3b92"/></linearGradient><path id="Musical_Note" d="m102.4 8.8c-1-.8-2.3-1-3.5-.7l-56 16c-1.7.5-2.9 2.1-2.9 3.9v63.3c-3.4-2-7.5-3.3-12-3.3-11 0-20 7.2-20 16s9 16 20 16 20-7.2 20-16v-53l48-13.7v38c-3.4-2-7.5-3.3-12-3.3-11 0-20 7.2-20 16s9 16 20 16 20-7.2 20-16v-76c0-1.3-.6-2.4-1.6-3.2zm-74.4 103.2c-6.5 0-12-3.7-12-8s5.5-8 12-8 12 3.7 12 8-5.5 8-12 8zm20-69.3v-11.7l48-13.7v11.7zm36 53.3c-6.5 0-12-3.7-12-8s5.5-8 12-8 12 3.7 12 8-5.5 8-12 8z" fill="url(#Musical_Note_1_)"/></svg>